<?xml version="1.0" encoding="UTF-8"?>
<svg version="1.1" xmlns="http://www.w3.org/2000/svg" width="1378" height="1378">
<path d="M0 0 C47.94035258 -0.01710971 95.88070539 -0.03303144 143.82106018 -0.04234314 C144.53002011 -0.0424812 145.23898003 -0.04261925 145.96942359 -0.04276149 C161.37515457 -0.04575405 176.78088557 -0.04852428 192.18661663 -0.05106533 C199.74102893 -0.05231272 207.29544122 -0.05360927 214.84985352 -0.05493164 C215.60162863 -0.0550624 216.35340375 -0.05519316 217.12795993 -0.05532788 C241.51738153 -0.05959308 265.90680082 -0.06710726 290.29622103 -0.07629722 C315.34892837 -0.08572002 340.40163443 -0.09188317 365.45434351 -0.09391499 C368.98875345 -0.09420317 372.52316338 -0.0945288 376.05757332 -0.09487724 C376.75323059 -0.09494467 377.44888786 -0.09501209 378.16562565 -0.09508156 C389.38665623 -0.0962656 400.60768287 -0.10090992 411.82871185 -0.10683203 C423.09577643 -0.11270518 434.36283716 -0.11489027 445.62990361 -0.11350138 C451.74026106 -0.11285766 457.85060689 -0.11387932 463.9609623 -0.11920547 C469.54498032 -0.12403761 475.1289788 -0.12433989 480.71299768 -0.12089889 C482.74261214 -0.12047302 484.77222777 -0.12177031 486.80183988 -0.12488318 C489.54172273 -0.12884405 492.28153323 -0.12676534 495.02141476 -0.12304783 C495.8257735 -0.12567484 496.63013224 -0.12830186 497.45886549 -0.13100848 C502.8858542 -0.1141458 502.8858542 -0.1141458 504 1 C504.969375 1.103125 505.93875 1.20625 506.9375 1.3125 C524.53221655 3.70366837 539.78726741 16.42461886 551.8125 28.5625 C552.65748047 29.39974609 553.50246094 30.23699219 554.37304688 31.09960938 C555.18451172 31.91365234 555.99597656 32.72769531 556.83203125 33.56640625 C557.56139893 34.29802979 558.2907666 35.02965332 559.04223633 35.78344727 C561.06210466 38.07031402 562.5182097 40.33813903 564 43 C564.56182983 44.0063147 564.56182983 44.0063147 565.13500977 45.03295898 C566.28241623 47.16522046 567.4242799 49.30032001 568.5625 51.4375 C568.96146484 52.17548828 569.36042969 52.91347656 569.77148438 53.67382812 C573.17354749 60.06334566 575.01137715 65.79717637 576 73 C576.33 73.33 576.66 73.66 577 74 C577.09893275 76.67317709 577.13176258 79.32053227 577.12304783 81.99420261 C577.12420167 82.8462968 577.12535552 83.69839098 577.12654433 84.57630619 C577.12921867 87.46890431 577.12468215 90.36144821 577.12025452 93.25404358 C577.12069005 95.33380615 577.12156463 97.41356867 577.12284368 99.4933309 C577.12509212 105.23747168 577.12106262 110.98159401 577.11606562 116.72573245 C577.11176628 122.90914005 577.11320718 129.09254652 577.1139679 135.2759552 C577.11449346 145.99879807 577.11137801 156.72163426 577.10573006 167.44447517 C577.09981956 178.69451997 577.09596543 189.94456235 577.09487724 201.19460869 C577.0948085 201.89325873 577.09473976 202.59190876 577.09466894 203.31173001 C577.09433062 206.85960369 577.09402923 210.40747737 577.09374207 213.95535105 C577.09163985 239.10605925 577.08489746 264.25676429 577.07543945 289.4074707 C577.06625987 313.84594709 577.05917388 338.28442262 577.05493164 362.72290039 C577.05473435 363.85220937 577.05473435 363.85220937 577.05453308 365.00433267 C577.05321459 372.56476661 577.05193877 380.12520055 577.05069422 387.6856345 C577.04815778 403.08806607 577.04533653 418.49049759 577.04234314 433.89292908 C577.04220585 434.6011582 577.04206856 435.30938733 577.04192711 436.03907795 C577.03272143 483.35938664 577.0168549 530.67969348 577 578 C576.34 578 575.68 578 575 578 C575 580.64 575 583.28 575 586 C574.34 586 573.68 586 573 586 C573 587.98 573 589.96 573 592 C572.34 592 571.68 592 571 592 C571 593.32 571 594.64 571 596 C570.34 596 569.68 596 569 596 C569 597.32 569 598.64 569 600 C568.34 600 567.68 600 567 600 C567 601.32 567 602.64 567 604 C566.34 604 565.68 604 565 604 C565 605.32 565 606.64 565 608 C564.34 608 563.68 608 563 608 C563 608.66 563 609.32 563 610 C562.34 610 561.68 610 561 610 C561 611.32 561 612.64 561 614 C560.34 614 559.68 614 559 614 C559 614.66 559 615.32 559 616 C558.34 616 557.68 616 557 616 C557 616.66 557 617.32 557 618 C556.34 618 555.68 618 555 618 C555 618.66 555 619.32 555 620 C554.34 620 553.68 620 553 620 C553 620.66 553 621.32 553 622 C552.34 622 551.68 622 551 622 C551 622.66 551 623.32 551 624 C550.34 624 549.68 624 549 624 C549 624.66 549 625.32 549 626 C548.34 626 547.68 626 547 626 C547 626.66 547 627.32 547 628 C546.34 628 545.68 628 545 628 C544.731875 628.598125 544.46375 629.19625 544.1875 629.8125 C540.61893335 636.38617541 532.90888242 639.18254134 526.5625 642.5625 C525.82451172 642.96146484 525.08652344 643.36042969 524.32617188 643.77148438 C517.93665434 647.17354749 512.20282363 649.01137715 505 650 C504.67 650.33 504.34 650.66 504 651 C501.8278204 651.10705836 499.65210773 651.14247025 497.47731018 651.15148926 C496.78774654 651.15572167 496.0981829 651.15995408 495.38772339 651.16431475 C493.05999388 651.17740779 490.73229867 651.18338081 488.40454102 651.18945312 C486.74263293 651.19739025 485.08072695 651.20577777 483.41882324 651.21458435 C479.83165148 651.23267996 476.24448446 651.24768173 472.65728951 651.26036072 C466.98999691 651.28052761 461.32275645 651.30818734 455.65550232 651.33703613 C443.62452591 651.3972111 431.5935183 651.44900946 419.5625 651.5 C406.57966987 651.55503604 393.59685551 651.61148285 380.61407608 651.67754889 C374.97554532 651.70595539 369.33702079 651.72953102 363.69845402 651.74947357 C360.1955404 651.76283227 356.6926556 651.7802464 353.18976593 651.79878426 C351.56031712 651.80656002 349.93085913 651.81262093 348.30139732 651.81687737 C346.08410658 651.82289729 343.86692885 651.83493237 341.64967346 651.84851074 C340.40655175 651.85366447 339.16343004 651.85881821 337.88263798 651.86412811 C335.05793068 651.80244885 335.05793068 651.80244885 333 653 C332.99365209 654.26643546 332.99365209 654.26643546 332.98717594 655.55845547 C332.88401624 676.07134322 332.77540084 696.58419569 332.66066074 717.09702206 C332.60530658 727.01673626 332.55182104 736.93645406 332.50268555 746.85620117 C332.45987051 755.49899238 332.4135994 764.14175688 332.36312145 772.78450686 C332.33649884 777.36370895 332.31164532 781.94290567 332.29092598 786.5221386 C332.27139294 790.82714303 332.24725936 795.13209651 332.21950912 799.43705559 C332.21012097 801.02177 332.20245208 802.60649562 332.19658089 804.19122696 C332.18834953 806.34543154 332.1740816 808.49951143 332.15821838 810.65367126 C332.14853956 812.46637717 332.14853956 812.46637717 332.1386652 814.31570339 C332 817 332 817 331 818 C330.63239269 820.32817964 330.29758419 822.6618385 330 825 C329.34 825 328.68 825 328 825 C328 826.98 328 828.96 328 831 C327.34 831 326.68 831 326 831 C325.88785156 831.70511719 325.77570312 832.41023438 325.66015625 833.13671875 C324.93685092 836.27389512 323.80542309 838.90127906 322.4375 841.8125 C321.98246094 842.78832031 321.52742187 843.76414062 321.05859375 844.76953125 C320.70925781 845.50558594 320.35992188 846.24164062 320 847 C319.34 847 318.68 847 318 847 C317.34 848.98 316.68 850.96 316 853 C315.34 853 314.68 853 314 853 C314 853.66 314 854.32 314 855 C313.34 855 312.68 855 312 855 C312 855.66 312 856.32 312 857 C311.34 857 310.68 857 310 857 C310 857.66 310 858.32 310 859 C309.34 859 308.68 859 308 859 C308 859.66 308 860.32 308 861 C307.34 861 306.68 861 306 861 C306 861.66 306 862.32 306 863 C305.34 863 304.68 863 304 863 C304 863.66 304 864.32 304 865 C303.34 865 302.68 865 302 865 C302 865.66 302 866.32 302 867 C301.34 867 300.68 867 300 867 C300 867.66 300 868.32 300 869 C299.34 869 298.68 869 298 869 C298 869.66 298 870.32 298 871 C297.34 871 296.68 871 296 871 C296 871.66 296 872.32 296 873 C295.34 873 294.68 873 294 873 C294 873.66 294 874.32 294 875 C292.02 875.66 290.04 876.32 288 877 C288 877.66 288 878.32 288 879 C280.80055609 882.82238517 273.88478278 885.93763257 266 888 C264.97422322 888.33796433 263.94844645 888.67592866 262.89158553 889.02413434 C258.66833067 890.2259674 254.6527878 890.27883087 250.28541279 890.25447559 C248.99974709 890.25928531 248.99974709 890.25928531 247.68810835 890.26419219 C244.81440899 890.27249728 241.94091776 890.26656606 239.06721497 890.26069641 C236.98670031 890.26371687 234.90618677 890.26760582 232.82567519 890.27228898 C227.10684414 890.28259155 221.38807563 890.28038138 215.6692394 890.27610838 C209.50206089 890.27364522 203.33489758 890.2826503 197.16772461 890.29014587 C185.08411995 890.30290693 173.00054273 890.30469058 160.91693447 890.30234561 C151.09502324 890.30051276 141.27311853 890.30227239 131.45120811 890.30657005 C130.03995122 890.30717246 128.62869433 890.30777365 127.21743744 890.30837366 C125.09076825 890.30928092 122.96409906 890.31018958 120.83742988 890.31110601 C101.06340465 890.31953606 81.28938188 890.32387095 61.51535511 890.31969929 C60.76987541 890.31954291 60.02439571 890.31938654 59.25632572 890.31922542 C55.47797967 890.31841964 51.69963362 890.31757387 47.92128757 890.31671212 C47.17090379 890.31654103 46.42052 890.31636994 45.64739732 890.31619367 C44.129938 890.31584701 42.61247868 890.31549849 41.09501936 890.31514808 C17.49000789 890.30979239 -6.11496621 890.31771678 -29.7199707 890.33618164 C-56.24464802 890.35690613 -82.76930218 890.36762336 -109.29398805 890.36360615 C-112.12336846 890.36321082 -114.95274887 890.36284927 -117.78212929 890.36250877 C-118.4787857 890.36241804 -119.17544212 890.36232731 -119.89320933 890.36223383 C-130.40256767 890.36106864 -140.91190262 890.36771027 -151.42125511 890.37832069 C-163.3776262 890.39037979 -175.33394404 890.39164574 -187.29032042 890.37953053 C-193.38996904 890.37363756 -199.48951706 890.37255403 -205.58915901 890.38453293 C-211.17599889 890.39537714 -216.76265401 890.39230556 -222.3494852 890.37827124 C-224.3676456 890.37562028 -226.38582041 890.37800337 -228.40396669 890.38600711 C-241.75887026 890.43528315 -253.5410792 889.80283592 -265.5625 883.375 C-270.16672734 880.917881 -270.16672734 880.917881 -275 879 C-275 878.34 -275 877.68 -275 877 C-276.98 876.34 -278.96 875.68 -281 875 C-281 874.34 -281 873.68 -281 873 C-281.66 873 -282.32 873 -283 873 C-283 872.34 -283 871.68 -283 871 C-283.66 871 -284.32 871 -285 871 C-285 870.34 -285 869.68 -285 869 C-285.66 869 -286.32 869 -287 869 C-287 868.34 -287 867.68 -287 867 C-287.66 867 -288.32 867 -289 867 C-289 866.34 -289 865.68 -289 865 C-289.66 865 -290.32 865 -291 865 C-291 864.34 -291 863.68 -291 863 C-291.66 863 -292.32 863 -293 863 C-293 862.34 -293 861.68 -293 861 C-293.66 861 -294.32 861 -295 861 C-295 860.34 -295 859.68 -295 859 C-295.66 859 -296.32 859 -297 859 C-297 858.34 -297 857.68 -297 857 C-297.66 857 -298.32 857 -299 857 C-299 856.34 -299 855.68 -299 855 C-299.66 855 -300.32 855 -301 855 C-301 854.34 -301 853.68 -301 853 C-301.66 853 -302.32 853 -303 853 C-303.99 850.03 -303.99 850.03 -305 847 C-305.66 847 -306.32 847 -307 847 C-308.0098473 845.08850332 -309.00754495 843.17058431 -310 841.25 C-310.556875 840.18265625 -311.11375 839.1153125 -311.6875 838.015625 C-313 835 -313 835 -313 831 C-313.66 831 -314.32 831 -315 831 C-315 829.02 -315 827.04 -315 825 C-315.66 825 -316.32 825 -317 825 C-317.144375 823.865625 -317.28875 822.73125 -317.4375 821.5625 C-317.61171478 818.19222799 -317.61171478 818.19222799 -319 817 C-319.09984795 814.32777654 -319.13360773 811.68134524 -319.12584114 809.0085907 C-319.12729458 808.15679611 -319.12874802 807.30500153 -319.13024551 806.42739499 C-319.1339328 803.53580781 -319.13040655 800.64427245 -319.12698364 797.75268555 C-319.12813439 795.67363552 -319.12972159 793.5945857 -319.13171089 791.51553631 C-319.13591065 785.77332761 -319.13381062 780.03113539 -319.13072467 774.2889266 C-319.1284734 768.10754372 -319.13194881 761.9261638 -319.13470459 755.74478149 C-319.13890608 744.32557122 -319.13852532 732.90636772 -319.13579312 721.48715761 C-319.13328173 710.93954779 -319.13261892 700.3919399 -319.13381577 689.84432983 C-319.13389215 689.14582492 -319.13396854 688.44732001 -319.13404724 687.72764828 C-319.13435855 684.89248939 -319.13467695 682.0573305 -319.135007 679.22217162 C-319.1380689 652.60334042 -319.13528795 625.9845126 -319.1299101 599.36568193 C-319.12516418 575.6946325 -319.12558879 552.02358845 -319.13037109 528.35253906 C-319.13572084 501.78370106 -319.13785178 475.21486603 -319.13475883 448.64602757 C-319.13443809 445.81590843 -319.13412525 442.9857893 -319.13381577 440.15567017 C-319.13373669 439.45877625 -319.13365761 438.76188233 -319.13357614 438.04387041 C-319.13243664 427.50054943 -319.13377269 416.9572306 -319.13629532 406.41390991 C-319.13914808 394.43074221 -319.13835691 382.44758086 -319.13301457 370.4644134 C-319.13037638 364.34392355 -319.12937448 358.22344465 -319.13266373 352.10295486 C-319.13562428 346.50972314 -319.13403794 340.91651261 -319.12868617 335.32328284 C-319.12756095 333.29033416 -319.12815547 331.25738373 -319.13056196 329.22443616 C-319.1335636 326.48006772 -319.13052393 323.73577372 -319.12584114 320.9914093 C-319.12818231 320.18573206 -319.13052347 319.38005482 -319.13293558 318.54996312 C-319.11415034 313.11415034 -319.11415034 313.11415034 -318 312 C-317.63239269 309.67182036 -317.29758419 307.3381615 -317 305 C-316.34 305 -315.68 305 -315 305 C-315 303.02 -315 301.04 -315 299 C-314.34 299 -313.68 299 -313 299 C-313 297.68 -313 296.36 -313 295 C-312.34 295 -311.68 295 -311 295 C-311 293.68 -311 292.36 -311 291 C-310.34 291 -309.68 291 -309 291 C-309 289.68 -309 288.36 -309 287 C-308.34 287 -307.68 287 -307 287 C-306.855625 286.38125 -306.71125 285.7625 -306.5625 285.125 C-306 283 -306 283 -305 281 C-304.34 281 -303.68 281 -303 281 C-302.92160889 280.43700195 -302.84321777 279.87400391 -302.76245117 279.29394531 C-301.0596945 274.17095407 -296.07771538 270.49505273 -292.3125 266.75 C-291.83769196 266.27434601 -291.36288391 265.79869202 -290.87368774 265.30862427 C-283.51406882 257.97698809 -276.48736197 252.29714076 -267 248 C-265.62422957 247.23054256 -264.24911283 246.45991373 -262.875 245.6875 C-258.61786037 243.59139203 -254.0506975 242.64590094 -249.44140625 241.61328125 C-247.06806139 241.23923714 -247.06806139 241.23923714 -246 240 C-243.79805471 239.89070332 -241.59255146 239.85307086 -239.38792419 239.84178162 C-238.68878232 239.83684364 -237.98964044 239.83190566 -237.26931244 239.82681805 C-234.90928048 239.81136957 -232.54927586 239.80306268 -230.18920898 239.79467773 C-228.50435136 239.78510497 -226.81949617 239.77509526 -225.13464355 239.76467896 C-220.54602164 239.73755855 -215.95738936 239.71658775 -211.36873126 239.69667697 C-206.57873298 239.67486127 -201.7887669 239.64745105 -196.99879456 239.62062073 C-187.92173302 239.57063393 -178.84465368 239.52571739 -169.7675572 239.48259836 C-157.50631115 239.42406277 -145.24510741 239.35774388 -132.98389912 239.29184818 C-113.65596121 239.18817988 -94.32798723 239.09495301 -75 239 C-74.67 184.55 -74.34 130.1 -74 74 C-73.34 74 -72.68 74 -72 74 C-72 71.36 -72 68.72 -72 66 C-71.34 66 -70.68 66 -70 66 C-70 64.02 -70 62.04 -70 60 C-69.34 60 -68.68 60 -68 60 C-68 58.68 -68 57.36 -68 56 C-67.34 56 -66.68 56 -66 56 C-66 54.68 -66 53.36 -66 52 C-65.34 52 -64.68 52 -64 52 C-64 50.68 -64 49.36 -64 48 C-63.34 48 -62.68 48 -62 48 C-62 46.68 -62 45.36 -62 44 C-61.34 44 -60.68 44 -60 44 C-60 43.34 -60 42.68 -60 42 C-59.34 42 -58.68 42 -58 42 C-58 40.68 -58 39.36 -58 38 C-57.34 38 -56.68 38 -56 38 C-56 37.34 -56 36.68 -56 36 C-55.34 36 -54.68 36 -54 36 C-54 35.34 -54 34.68 -54 34 C-53.34 34 -52.68 34 -52 34 C-52 33.34 -52 32.68 -52 32 C-51.34 32 -50.68 32 -50 32 C-50 31.34 -50 30.68 -50 30 C-49.34 30 -48.68 30 -48 30 C-48 29.34 -48 28.68 -48 28 C-47.34 28 -46.68 28 -46 28 C-46 27.34 -46 26.68 -46 26 C-45.34 26 -44.68 26 -44 26 C-44 25.34 -44 24.68 -44 24 C-43.34 24 -42.68 24 -42 24 C-42 23.34 -42 22.68 -42 22 C-41.34 22 -40.68 22 -40 22 C-40 21.34 -40 20.68 -40 20 C-39.34 20 -38.68 20 -38 20 C-38 19.34 -38 18.68 -38 18 C-37.34 18 -36.68 18 -36 18 C-36 17.34 -36 16.68 -36 16 C-34.68 16 -33.36 16 -32 16 C-32 15.34 -32 14.68 -32 14 C-31.34 14 -30.68 14 -30 14 C-30 13.34 -30 12.68 -30 12 C-28.68 12 -27.36 12 -26 12 C-26 11.34 -26 10.68 -26 10 C-24.68 10 -23.36 10 -22 10 C-22 9.34 -22 8.68 -22 8 C-20.68 8 -19.36 8 -18 8 C-18 7.34 -18 6.68 -18 6 C-16.68 6 -15.36 6 -14 6 C-14 5.34 -14 4.68 -14 4 C-12.02 4 -10.04 4 -8 4 C-8 3.34 -8 2.68 -8 2 C-5.36 2 -2.72 2 0 2 C0 1.34 0 0.68 0 0 Z M-2 47 C-3.01835938 47.57234375 -4.03671875 48.1446875 -5.0859375 48.734375 C-9.22836114 51.95502609 -12.91470921 55.54615069 -16.625 59.25 C-17.75035156 60.33861328 -17.75035156 60.33861328 -18.8984375 61.44921875 C-25.5552425 68.07061522 -30.48209376 75.55046152 -31.25447559 85.16901016 C-31.25652846 86.31127941 -31.25858133 87.45354866 -31.26069641 88.63043213 C-31.26778122 89.94839783 -31.27486603 91.26636353 -31.28216553 92.62426758 C-31.27987208 94.07275425 -31.27736243 95.5212406 -31.2746582 96.96972656 C-31.27900812 98.50429532 -31.28419221 100.03886191 -31.29014587 101.57342529 C-31.30351095 105.73012109 -31.30411777 109.88672583 -31.30158257 114.04343891 C-31.30051207 117.51307714 -31.30539781 120.98269701 -31.310188 124.4523313 C-31.32127262 132.63262291 -31.3217252 140.81286858 -31.31567383 148.99316406 C-31.30962168 157.4400279 -31.3219788 165.88672568 -31.3432439 174.33356118 C-31.36082913 181.58461962 -31.3668665 188.83562503 -31.36360615 196.08670402 C-31.36178964 200.4183045 -31.36446678 204.74978628 -31.37832069 209.08136749 C-31.39084595 213.14930652 -31.38900574 217.21698496 -31.37590981 221.28491974 C-31.37353356 222.7805388 -31.37631595 224.27617592 -31.38453293 225.77177429 C-31.39491197 227.80699345 -31.38514687 229.84228615 -31.3742218 231.87750244 C-31.37438954 233.01826359 -31.37455729 234.15902473 -31.37473011 235.3343544 C-31.18923871 236.65384897 -31.18923871 236.65384897 -31 238 C-27.49177542 240.33881638 -26.07299679 240.25280607 -21.92382812 240.25878906 C-20.04673157 240.26824554 -20.04673157 240.26824554 -18.13171387 240.27789307 C-16.76489115 240.27431327 -15.39806971 240.27021131 -14.03125 240.265625 C-12.63024834 240.26697228 -11.22924713 240.26891335 -9.82824707 240.27142334 C-6.89277696 240.27437163 -3.95742861 240.27008652 -1.02197266 240.26074219 C2.74095095 240.24934771 6.50358925 240.25590877 10.26650238 240.26788712 C13.15926259 240.27511373 16.05195516 240.27281412 18.94471741 240.26763153 C20.33219944 240.26629725 21.71968761 240.26793502 23.10716248 240.27259064 C25.04604983 240.27766871 26.98495872 240.26855675 28.92382812 240.25878906 C30.5790448 240.25640228 30.5790448 240.25640228 32.2677002 240.25396729 C35.21781092 240.19807379 35.21781092 240.19807379 38 238 C38 196.42 38 154.84 38 112 C179.24 112 320.48 112 466 112 C465.67 252.91 465.34 393.82 465 539 C399.165 539.495 399.165 539.495 332 540 C331.938125 551.01375 331.87625 562.0275 331.8125 573.375 C331.78518799 576.85466309 331.75787598 580.33432617 331.72973633 583.91943359 C331.72097855 586.66243136 331.71333295 589.405433 331.70703125 592.1484375 C331.69919113 592.86383698 331.69135101 593.57923645 331.68327332 594.3163147 C331.66138268 596.41860873 331.65827951 598.52016804 331.65942383 600.62255859 C331.65276199 601.80836517 331.64610016 602.99417175 331.63923645 604.21591187 C331.75828842 605.13466095 331.87734039 606.05341003 332 607 C335.57265486 609.38176991 337.12496927 609.25521029 341.36769104 609.26742554 C342.01656703 609.27195665 342.66544303 609.27648776 343.33398193 609.28115618 C345.51252154 609.29383579 347.69081229 609.29217752 349.86938477 609.29052734 C351.42994001 609.29651069 352.99049228 609.30331579 354.55104065 609.31088257 C358.79521651 609.3285771 363.03931176 609.33323961 367.28352094 609.33451414 C369.93714503 609.33593522 372.5907486 609.34020415 375.2443676 609.34550858 C384.50838395 609.3640256 393.77234271 609.37217776 403.03637695 609.37060547 C411.65971865 609.36940606 420.28280925 609.39046462 428.90608746 609.4220928 C436.31602131 609.44829795 443.72587343 609.45897087 451.13585323 609.45769465 C455.55834102 609.45718593 459.98060608 609.46281798 464.40304756 609.48405075 C468.56869502 609.50350274 472.73390908 609.50351042 476.89957237 609.48901749 C478.42247276 609.48693635 479.94540074 609.4915886 481.46825409 609.5037384 C496.6919124 609.6172562 506.4837055 605.71420513 517.375 594.99609375 C518.1175 594.25488281 518.86 593.51367188 519.625 592.75 C520.37523437 592.02425781 521.12546875 591.29851563 521.8984375 590.55078125 C526.97050277 585.50569505 531.62940704 580.4471155 532.25 573 C532.12625 572.01 532.12625 572.01 532 571 C532.66 571 533.32 571 534 571 C534 409.3 534 247.6 534 81 C533.34 81 532.68 81 532 81 C532 79.02 532 77.04 532 75 C531.34 75 530.68 75 530 75 C530 73.68 530 72.36 530 71 C529.34 71 528.68 71 528 71 C528 69.68 528 68.36 528 67 C527.34 67 526.68 67 526 67 C526 66.34 526 65.68 526 65 C525.34 65 524.68 65 524 65 C524 64.34 524 63.68 524 63 C523.34 63 522.68 63 522 63 C522 62.34 522 61.68 522 61 C521.34 61 520.68 61 520 61 C520 60.34 520 59.68 520 59 C519.34 59 518.68 59 518 59 C518 58.34 518 57.68 518 57 C517.34 57 516.68 57 516 57 C516 56.34 516 55.68 516 55 C515.34 55 514.68 55 514 55 C513.79375 54.4225 513.5875 53.845 513.375 53.25 C511.48967895 50.16492919 509.09886141 48.69111344 506 47 C505.39343756 46.65268971 504.78687511 46.30537942 504.16193199 45.94754457 C495.32548697 41.6735279 485.91688194 42.44438887 476.33837891 42.49206543 C474.32396812 42.48745356 472.3095607 42.48109872 470.29516029 42.47315645 C464.77299992 42.45647952 459.25111655 42.4647022 453.72895527 42.47710133 C447.76840158 42.48615611 441.80789533 42.47217994 435.84735107 42.46118164 C424.8501514 42.44442393 413.85303393 42.4458746 402.85583109 42.45682751 C392.6958091 42.46689672 382.53581941 42.46951329 372.37579346 42.46473694 C371.36419558 42.46427863 371.36419558 42.46427863 370.33216138 42.46381106 C367.59443663 42.46256567 364.8567119 42.46129206 362.11898718 42.459972 C336.44623906 42.44774083 310.77354704 42.45882218 285.10080758 42.48035959 C262.30089896 42.49934149 239.50107971 42.49764296 216.70117188 42.47851562 C191.07485521 42.45708893 165.4485881 42.44860832 139.82226372 42.46096468 C137.089578 42.46224752 134.35689228 42.46349888 131.62420654 42.46473694 C130.95136834 42.46505325 130.27853014 42.46536956 129.5853029 42.46569545 C119.43260776 42.47024197 109.27994848 42.46493053 99.1272583 42.45481873 C87.58114266 42.44337632 76.0351274 42.44663702 64.48902369 42.4679417 C58.59817932 42.47845319 52.7075163 42.48257203 46.81667328 42.46934509 C41.42305606 42.45741777 36.02978815 42.46398978 30.63620257 42.4852553 C28.68613808 42.48971986 26.73604403 42.48745841 24.78599858 42.47775215 C10.89358907 42.27509669 10.89358907 42.27509669 -2 47 Z M81 155 C80.97687703 165.93496471 80.95908515 176.86992366 80.94818783 187.8049078 C80.9429589 192.88191018 80.93586108 197.95889589 80.92456055 203.03588867 C80.91373201 207.93120552 80.90772324 212.82650629 80.90512276 217.72183418 C80.90326845 219.59382951 80.89964772 221.46582391 80.89426994 223.33781242 C80.88705996 225.95040699 80.88600904 228.56293427 80.88647461 231.17553711 C80.88287933 231.95740387 80.87928406 232.73927063 80.87557983 233.54483032 C80.55716038 237.06522819 80.55716038 237.06522819 82 240 C84.26014079 240.10278028 86.52355386 240.13356166 88.786026 240.13803101 C89.50402467 240.14085229 90.22202333 240.14367357 90.96177953 240.14658034 C93.3860701 240.15496387 95.81031523 240.15626781 98.23461914 240.15771484 C99.96560801 240.16238049 101.69659565 240.16752363 103.42758179 240.17311096 C107.1653488 240.18441441 110.90310773 240.19283788 114.64088631 240.19923019 C120.55346286 240.2098906 126.46598177 240.23013178 132.37852478 240.25234985 C149.19527537 240.31433482 166.01202343 240.36824804 182.82885742 240.40136719 C192.1090034 240.41972414 201.38905369 240.44867735 210.66912931 240.4893719 C215.58112605 240.51043108 220.49300221 240.52589756 225.40504646 240.52817917 C230.03026546 240.53032986 234.65523382 240.54624229 239.28037643 240.57256889 C240.97502573 240.57974843 242.66970544 240.58186939 244.36436653 240.57846642 C246.68490126 240.57455223 249.00464315 240.58908825 251.3250885 240.60800171 C252.6216742 240.61131186 253.91825991 240.614622 255.25413609 240.61803246 C259.67780747 241.06911635 262.90118377 242.30006579 267 244 C268.39268874 244.42705958 269.7879465 244.84600518 271.1875 245.25 C285.28357105 249.90804424 296.17298322 258.82210344 306.4375 269.1875 C307.25154297 269.99380859 308.06558594 270.80011719 308.90429688 271.63085938 C309.67708984 272.40623047 310.44988281 273.18160156 311.24609375 273.98046875 C311.94404053 274.68067139 312.6419873 275.38087402 313.36108398 276.10229492 C315 278 315 278 316 281 C316.66 281 317.32 281 318 281 C318.99 283.97 318.99 283.97 320 287 C320.66 287 321.32 287 322 287 C322 288.32 322 289.64 322 291 C322.66 291 323.32 291 324 291 C324 292.32 324 293.64 324 295 C324.66 295 325.32 295 326 295 C326 296.32 326 297.64 326 299 C326.66 299 327.32 299 328 299 C328 300.98 328 302.96 328 305 C328.66 305 329.32 305 330 305 C329.979375 306.134375 329.95875 307.26875 329.9375 308.4375 C329.58422523 311.81575674 329.58422523 311.81575674 331 313 C331.10779894 315.36289061 331.15050166 317.69708922 331.15148926 320.06091309 C331.15783787 321.1820715 331.15783787 321.1820715 331.16431475 322.32587957 C331.17740971 324.8494164 331.18338123 327.37292158 331.18945312 329.89648438 C331.19739002 331.69794409 331.20577753 333.49940187 331.21458435 335.30085754 C331.23268046 339.18923891 331.24768197 343.07761591 331.26036072 346.96601868 C331.28052316 353.10770409 331.3081829 359.24934133 331.33703613 365.39099121 C331.40233646 379.53739121 331.45770219 393.68382695 331.51302338 407.83026886 C331.56381072 420.79138307 331.61665828 433.75247985 331.67754889 446.71355104 C331.70597592 452.82570017 331.72954384 458.93784346 331.74947357 465.05002594 C331.76281911 468.84460747 331.7802337 472.63916223 331.79878426 476.43372154 C331.80656905 478.2006583 331.81262594 479.96760359 331.81687737 481.73455238 C331.82288388 484.13611 331.83491198 486.53756213 331.84851074 488.93908691 C331.84880673 489.64753549 331.84910272 490.35598407 331.84940767 491.08590078 C331.60052302 494.32296716 331.60052302 494.32296716 333 497 C335.76401408 497.10050214 338.50307226 497.13616075 341.26757812 497.12939453 C342.13418564 497.13114685 343.00079315 497.13289917 343.8936615 497.13470459 C346.77287773 497.13912425 349.65203309 497.13618472 352.53125 497.1328125 C354.52282727 497.13348551 356.51440446 497.1344555 358.50598145 497.13571167 C362.68579895 497.1371888 366.86559513 497.13503361 371.04541016 497.13037109 C376.41602526 497.1246738 381.7865904 497.12795273 387.15720367 497.13394356 C391.2714272 497.13754877 395.38563879 497.13641077 399.49986267 497.13381577 C401.48070786 497.13314639 403.46155412 497.1339753 405.44239807 497.13629532 C408.20576876 497.13882119 410.96905734 497.13498218 413.73242188 497.12939453 C414.55947128 497.13141876 415.38652069 497.13344299 416.2386322 497.13552856 C419.92056725 497.47318749 419.92056725 497.47318749 423 496 C423.09839369 494.19213608 423.12555629 492.38037895 423.12584114 490.56983948 C423.12844889 489.38411063 423.13105664 488.19838179 423.13374341 486.97672176 C423.13151268 485.6573943 423.12928196 484.33806684 423.12698364 482.97875977 C423.1281345 481.57617687 423.12972178 480.17359427 423.13171089 478.77101231 C423.13590907 474.89865907 423.13381133 471.02633028 423.13072467 467.15397692 C423.12847277 462.98488221 423.13194913 458.81579186 423.13470459 454.646698 C423.13916354 446.47227018 423.13818527 438.29785152 423.13529195 430.12342334 C423.1330384 423.48300778 423.13272518 416.84259479 423.13381577 410.20217896 C423.133969 409.25898035 423.13412223 408.31578174 423.13428011 407.34400135 C423.13459982 405.42822862 423.13492403 403.51245588 423.1352527 401.59668314 C423.13810786 383.61014991 423.13481991 365.62362177 423.12945233 347.63708937 C423.12498426 332.18611693 423.12576018 316.735152 423.13037109 301.28417969 C423.13571623 283.36432617 423.13783316 265.44447712 423.13475883 247.52462292 C423.13444026 245.61568896 423.13412589 243.706755 423.13381577 241.79782104 C423.13366149 240.85845925 423.13350721 239.91909746 423.13334826 238.95127016 C423.13248292 232.31477188 423.13394635 225.67827641 423.13629532 219.04177856 C423.13909284 210.95993515 423.13835607 202.87810146 423.13301457 194.79625916 C423.13037691 190.66862976 423.12937359 186.5410166 423.13266373 182.4133873 C423.13562537 178.64096798 423.13403611 174.86858007 423.12868617 171.09616363 C423.12702518 169.07186848 423.13032073 167.04757118 423.13374341 165.02327824 C423.12983178 163.24468497 423.12983178 163.24468497 423.12584114 161.43016052 C423.12567879 160.39824302 423.12551644 159.36632551 423.12534916 158.30313778 C423.25901986 156.03647515 423.25901986 156.03647515 422 155 C420.18596499 154.90249692 418.36808216 154.876286 416.55142879 154.87695217 C415.36159985 154.87496112 414.17177091 154.87297007 412.94588655 154.87091869 C411.6086131 154.87377228 410.27133984 154.87671788 408.93406677 154.87974548 C407.5266466 154.87930991 406.1192265 154.87843525 404.71180683 154.87715632 C400.82611926 154.87490872 396.94045898 154.87893624 393.05477488 154.88393438 C388.87138595 154.88823491 384.68799867 154.88679274 380.50460815 154.8860321 C373.25055511 154.88550662 365.99651104 154.888656 358.74246025 154.89426994 C348.25419609 154.90238159 337.76593628 154.90499982 327.27766932 154.90625793 C310.26299128 154.90844898 293.24831802 154.9151105 276.23364258 154.92456055 C259.70109074 154.9337333 243.1685402 154.9408148 226.63598633 154.94506836 C225.61768356 154.94533108 224.59938079 154.94559381 223.55022036 154.94586449 C218.44192271 154.94716949 213.33362504 154.9484332 208.22532737 154.94967639 C165.8168816 154.96005065 123.40844105 154.9776704 81 155 Z " fill="#C9C9C9" transform="translate(559,247)"/>
<path d="M0 0 C47.94035258 -0.01710971 95.88070539 -0.03303144 143.82106018 -0.04234314 C144.53002011 -0.0424812 145.23898003 -0.04261925 145.96942359 -0.04276149 C161.37515457 -0.04575405 176.78088557 -0.04852428 192.18661663 -0.05106533 C199.74102893 -0.05231272 207.29544122 -0.05360927 214.84985352 -0.05493164 C215.60162863 -0.0550624 216.35340375 -0.05519316 217.12795993 -0.05532788 C241.51738153 -0.05959308 265.90680082 -0.06710726 290.29622103 -0.07629722 C315.34892837 -0.08572002 340.40163443 -0.09188317 365.45434351 -0.09391499 C368.98875345 -0.09420317 372.52316338 -0.0945288 376.05757332 -0.09487724 C376.75323059 -0.09494467 377.44888786 -0.09501209 378.16562565 -0.09508156 C389.38665623 -0.0962656 400.60768287 -0.10090992 411.82871185 -0.10683203 C423.09577643 -0.11270518 434.36283716 -0.11489027 445.62990361 -0.11350138 C451.74026106 -0.11285766 457.85060689 -0.11387932 463.9609623 -0.11920547 C469.54498032 -0.12403761 475.1289788 -0.12433989 480.71299768 -0.12089889 C482.74261214 -0.12047302 484.77222777 -0.12177031 486.80183988 -0.12488318 C489.54172273 -0.12884405 492.28153323 -0.12676534 495.02141476 -0.12304783 C495.8257735 -0.12567484 496.63013224 -0.12830186 497.45886549 -0.13100848 C502.8858542 -0.1141458 502.8858542 -0.1141458 504 1 C504.969375 1.103125 505.93875 1.20625 506.9375 1.3125 C524.53221655 3.70366837 539.78726741 16.42461886 551.8125 28.5625 C552.65748047 29.39974609 553.50246094 30.23699219 554.37304688 31.09960938 C555.18451172 31.91365234 555.99597656 32.72769531 556.83203125 33.56640625 C557.56139893 34.29802979 558.2907666 35.02965332 559.04223633 35.78344727 C561.06210466 38.07031402 562.5182097 40.33813903 564 43 C564.56182983 44.0063147 564.56182983 44.0063147 565.13500977 45.03295898 C566.28241623 47.16522046 567.4242799 49.30032001 568.5625 51.4375 C568.96146484 52.17548828 569.36042969 52.91347656 569.77148438 53.67382812 C573.17354749 60.06334566 575.01137715 65.79717637 576 73 C576.33 73.33 576.66 73.66 577 74 C577.09893275 76.67317709 577.13176258 79.32053227 577.12304783 81.99420261 C577.12420167 82.8462968 577.12535552 83.69839098 577.12654433 84.57630619 C577.12921867 87.46890431 577.12468215 90.36144821 577.12025452 93.25404358 C577.12069005 95.33380615 577.12156463 97.41356867 577.12284368 99.4933309 C577.12509212 105.23747168 577.12106262 110.98159401 577.11606562 116.72573245 C577.11176628 122.90914005 577.11320718 129.09254652 577.1139679 135.2759552 C577.11449346 145.99879807 577.11137801 156.72163426 577.10573006 167.44447517 C577.09981956 178.69451997 577.09596543 189.94456235 577.09487724 201.19460869 C577.0948085 201.89325873 577.09473976 202.59190876 577.09466894 203.31173001 C577.09433062 206.85960369 577.09402923 210.40747737 577.09374207 213.95535105 C577.09163985 239.10605925 577.08489746 264.25676429 577.07543945 289.4074707 C577.06625987 313.84594709 577.05917388 338.28442262 577.05493164 362.72290039 C577.05473435 363.85220937 577.05473435 363.85220937 577.05453308 365.00433267 C577.05321459 372.56476661 577.05193877 380.12520055 577.05069422 387.6856345 C577.04815778 403.08806607 577.04533653 418.49049759 577.04234314 433.89292908 C577.04220585 434.6011582 577.04206856 435.30938733 577.04192711 436.03907795 C577.03272143 483.35938664 577.0168549 530.67969348 577 578 C576.34 578 575.68 578 575 578 C575 580.64 575 583.28 575 586 C574.34 586 573.68 586 573 586 C573 587.98 573 589.96 573 592 C572.34 592 571.68 592 571 592 C571 593.32 571 594.64 571 596 C570.34 596 569.68 596 569 596 C569 597.32 569 598.64 569 600 C568.34 600 567.68 600 567 600 C567 601.32 567 602.64 567 604 C566.34 604 565.68 604 565 604 C565 605.32 565 606.64 565 608 C564.34 608 563.68 608 563 608 C563 608.66 563 609.32 563 610 C562.34 610 561.68 610 561 610 C561 611.32 561 612.64 561 614 C560.34 614 559.68 614 559 614 C559 614.66 559 615.32 559 616 C558.34 616 557.68 616 557 616 C557 616.66 557 617.32 557 618 C556.34 618 555.68 618 555 618 C555 618.66 555 619.32 555 620 C554.34 620 553.68 620 553 620 C553 620.66 553 621.32 553 622 C552.34 622 551.68 622 551 622 C551 622.66 551 623.32 551 624 C550.34 624 549.68 624 549 624 C549 624.66 549 625.32 549 626 C548.34 626 547.68 626 547 626 C547 626.66 547 627.32 547 628 C546.34 628 545.68 628 545 628 C544.731875 628.598125 544.46375 629.19625 544.1875 629.8125 C540.61893335 636.38617541 532.90888242 639.18254134 526.5625 642.5625 C525.82451172 642.96146484 525.08652344 643.36042969 524.32617188 643.77148438 C517.93665434 647.17354749 512.20282363 649.01137715 505 650 C504.67 650.33 504.34 650.66 504 651 C501.83006545 651.10705618 499.6565944 651.14247012 497.48403931 651.15148926 C496.79518123 651.15572167 496.10632315 651.15995408 495.39659059 651.16431475 C493.07119506 651.17740791 490.74583386 651.18338086 488.42041016 651.18945312 C486.76012459 651.19739031 485.09984112 651.20577784 483.43955994 651.21458435 C479.85566437 651.23268058 476.27177355 651.2476822 472.68785477 651.26036072 C467.02448813 651.28053057 461.36117363 651.30819048 455.69784546 651.33703613 C443.67358802 651.39721221 431.64929932 651.44900008 419.625 651.5 C406.65269941 651.55504375 393.68041462 651.61151984 380.70816457 651.67754889 C375.07492962 651.70593658 369.44170082 651.72951928 363.80842996 651.74947357 C360.30656034 651.76284455 356.80471939 651.78025824 353.30287361 651.79878426 C351.67545737 651.80655164 350.048032 651.81261625 348.4206028 651.81687737 C346.20366217 651.82290979 343.98683344 651.83495127 341.76992798 651.84851074 C340.52772806 651.85366447 339.28552814 651.85881821 338.00568581 651.86412811 C334.94921739 651.86522547 334.94921739 651.86522547 332 653 C332 637.82 332 622.64 332 607 C332.99 607.33 333.98 607.66 335 608 C337.12076335 608.10022964 339.24457483 608.13937721 341.36769104 608.14717102 C342.01656703 608.15084771 342.66544303 608.1545244 343.33398193 608.1583125 C345.51245754 608.1693422 347.69088542 608.17319201 349.86938477 608.17700195 C351.42993827 608.18326733 352.99049027 608.1899142 354.55104065 608.19691467 C359.68115195 608.21795519 364.81126354 608.22831961 369.94140625 608.23828125 C371.70906019 608.24232933 373.47671398 608.24644627 375.2443676 608.25063133 C383.55241883 608.26968593 391.86046117 608.28391429 400.16853005 608.2922433 C409.74782027 608.30200586 419.32687882 608.32829853 428.90608746 608.36874419 C436.31601133 608.39895268 443.725869 608.41371681 451.13585323 608.41702431 C455.5583559 608.41937014 459.98061115 608.42826894 464.40304756 608.45348549 C468.56867586 608.47685309 472.73389539 608.4809648 476.89957237 608.47072411 C478.42248015 608.47023068 479.94540863 608.47649387 481.46825409 608.49028015 C496.4283263 608.61805443 506.28694397 604.90224152 517.01953125 594.3515625 C517.71433594 593.65804687 518.40914062 592.96453125 519.125 592.25 C519.82753906 591.57195313 520.53007813 590.89390625 521.25390625 590.1953125 C526.80649727 584.67421065 530.99727131 579.02182954 532 571 C532.66 571 533.32 571 534 571 C534 409.3 534 247.6 534 81 C533.34 81 532.68 81 532 81 C532 79.02 532 77.04 532 75 C531.34 75 530.68 75 530 75 C530 73.68 530 72.36 530 71 C529.34 71 528.68 71 528 71 C528 69.68 528 68.36 528 67 C527.34 67 526.68 67 526 67 C526 66.34 526 65.68 526 65 C525.34 65 524.68 65 524 65 C524 64.34 524 63.68 524 63 C523.34 63 522.68 63 522 63 C522 62.34 522 61.68 522 61 C521.34 61 520.68 61 520 61 C520 60.34 520 59.68 520 59 C519.34 59 518.68 59 518 59 C518 58.34 518 57.68 518 57 C517.34 57 516.68 57 516 57 C516 56.34 516 55.68 516 55 C515.34 55 514.68 55 514 55 C513.195625 53.88625 513.195625 53.88625 512.375 52.75 C508.13625509 47.84197958 502.14881183 45.74490224 496 44 C493.1881467 43.81583144 490.47794192 43.72762036 487.66836929 43.74273109 C486.84051583 43.73922502 486.01266237 43.73571895 485.15972245 43.73210663 C482.37954715 43.72278635 479.59958102 43.72771759 476.81939697 43.73257446 C474.80844125 43.72883852 472.79748698 43.72423723 470.78653502 43.71884382 C465.25541263 43.70659146 459.72435063 43.70687692 454.19321775 43.70923257 C448.22987653 43.70964017 442.26655482 43.69860699 436.30322266 43.68911743 C424.61787397 43.67249414 412.9325404 43.66698138 401.24718168 43.66589268 C391.74988571 43.66497361 382.25259628 43.66085705 372.75530243 43.65449142 C370.02156505 43.65269634 367.28782766 43.65091671 364.55409026 43.64914167 C363.53466592 43.64847852 363.53466592 43.64847852 362.49464714 43.64780198 C343.37757753 43.63549315 324.26051018 43.6276009 305.14343643 43.62848854 C304.06225514 43.62853528 304.06225514 43.62853528 302.95923181 43.62858296 C299.30598034 43.62874917 295.65272888 43.62894725 291.99947742 43.62915237 C290.9111546 43.62921221 290.9111546 43.62921221 289.80084546 43.62927325 C288.33360913 43.62935413 286.8663728 43.62943772 285.39913647 43.62952404 C262.57303165 43.63074945 239.74698625 43.61573824 216.92089844 43.58837891 C191.27557415 43.5576531 165.63028891 43.54044672 139.98494506 43.54230535 C137.24995025 43.54245461 134.51495544 43.54255202 131.77996063 43.54261398 C131.10653643 43.54263729 130.43311223 43.5426606 129.73928123 43.54268462 C118.9052883 43.54274614 108.07134698 43.52997805 97.23736938 43.51274945 C86.34724732 43.49578987 75.45720432 43.49416461 64.56707647 43.5069681 C58.66815154 43.51350639 52.76941354 43.51358366 46.87050629 43.4962616 C41.46934008 43.48056421 36.06850955 43.48336066 30.66735169 43.50082986 C28.71447088 43.50390708 26.76156522 43.50024027 24.8087137 43.48910971 C10.9034586 43.27153672 10.9034586 43.27153672 -2 48 C-3.54300781 48.87398438 -3.54300781 48.87398438 -5.1171875 49.765625 C-9.06885125 52.82843214 -12.58948073 56.22104013 -16.125 59.75 C-17.17880859 60.76707031 -17.17880859 60.76707031 -18.25390625 61.8046875 C-24.75305349 68.26697757 -29.51969373 75.80412165 -30.24609566 85.17459679 C-30.24425207 86.31946367 -30.24240849 87.46433056 -30.24050903 88.64389038 C-30.24307231 89.60713146 -30.24307231 89.60713146 -30.24568737 90.58983195 C-30.24896401 92.72715888 -30.23800913 94.86416716 -30.22705078 97.00146484 C-30.22648627 98.53927605 -30.22680401 100.07708779 -30.22793579 101.61489868 C-30.22850875 105.77974728 -30.21676362 109.94448027 -30.20278788 114.10930204 C-30.19027108 118.46549103 -30.18910927 122.82168277 -30.18673706 127.17788696 C-30.18052509 135.42254984 -30.16411808 143.66715958 -30.14403808 151.91179907 C-30.1216703 161.29990206 -30.11068344 170.68800762 -30.10064721 180.07613063 C-30.07975161 199.3841172 -30.04458112 218.69205432 -30 238 C-29.34 238.33 -28.68 238.66 -28 239 C-28 239.66 -28 240.32 -28 241 C-43.18 241 -58.36 241 -74 241 C-74 185.89 -74 130.78 -74 74 C-73.34 74 -72.68 74 -72 74 C-72 71.36 -72 68.72 -72 66 C-71.34 66 -70.68 66 -70 66 C-70 64.02 -70 62.04 -70 60 C-69.34 60 -68.68 60 -68 60 C-68 58.68 -68 57.36 -68 56 C-67.34 56 -66.68 56 -66 56 C-66 54.68 -66 53.36 -66 52 C-65.34 52 -64.68 52 -64 52 C-64 50.68 -64 49.36 -64 48 C-63.34 48 -62.68 48 -62 48 C-62 46.68 -62 45.36 -62 44 C-61.34 44 -60.68 44 -60 44 C-60 43.34 -60 42.68 -60 42 C-59.34 42 -58.68 42 -58 42 C-58 40.68 -58 39.36 -58 38 C-57.34 38 -56.68 38 -56 38 C-56 37.34 -56 36.68 -56 36 C-55.34 36 -54.68 36 -54 36 C-54 35.34 -54 34.68 -54 34 C-53.34 34 -52.68 34 -52 34 C-52 33.34 -52 32.68 -52 32 C-51.34 32 -50.68 32 -50 32 C-50 31.34 -50 30.68 -50 30 C-49.34 30 -48.68 30 -48 30 C-48 29.34 -48 28.68 -48 28 C-47.34 28 -46.68 28 -46 28 C-46 27.34 -46 26.68 -46 26 C-45.34 26 -44.68 26 -44 26 C-44 25.34 -44 24.68 -44 24 C-43.34 24 -42.68 24 -42 24 C-42 23.34 -42 22.68 -42 22 C-41.34 22 -40.68 22 -40 22 C-40 21.34 -40 20.68 -40 20 C-39.34 20 -38.68 20 -38 20 C-38 19.34 -38 18.68 -38 18 C-37.34 18 -36.68 18 -36 18 C-36 17.34 -36 16.68 -36 16 C-34.68 16 -33.36 16 -32 16 C-32 15.34 -32 14.68 -32 14 C-31.34 14 -30.68 14 -30 14 C-30 13.34 -30 12.68 -30 12 C-28.68 12 -27.36 12 -26 12 C-26 11.34 -26 10.68 -26 10 C-24.68 10 -23.36 10 -22 10 C-22 9.34 -22 8.68 -22 8 C-20.68 8 -19.36 8 -18 8 C-18 7.34 -18 6.68 -18 6 C-16.68 6 -15.36 6 -14 6 C-14 5.34 -14 4.68 -14 4 C-12.02 4 -10.04 4 -8 4 C-8 3.34 -8 2.68 -8 2 C-5.36 2 -2.72 2 0 2 C0 1.34 0 0.68 0 0 Z " fill="#AAAAAA" transform="translate(559,247)"/>
<path d="M0 0 C141.24 0 282.48 0 428 0 C428.020625 70.434375 428.04125 140.86875 428.0625 213.4375 C428.071604 235.72079834 428.08070801 258.00409668 428.09008789 280.96264648 C428.09460449 308.06262207 428.09460449 308.06262207 428.09544373 320.72792053 C428.09637968 329.62037925 428.1000622 338.51283175 428.10557556 347.4052887 C428.11191629 357.64723904 428.11484175 367.88918338 428.11344495 378.13113571 C428.11283943 383.37647534 428.1138359 388.62180154 428.11921513 393.86713874 C428.12404039 398.60077569 428.12435044 403.33438955 428.12090111 408.0680275 C428.12047349 409.78828671 428.12177219 411.5085473 428.12488258 413.22880375 C428.12884533 415.55534304 428.12676378 417.88179719 428.12304783 420.20833492 C428.12342755 421.50507985 428.12380727 422.80182478 428.1241985 424.13786501 C428 427 428 427 427 428 C425.27907347 428.09624593 423.55416618 428.12187598 421.83055115 428.12025452 C420.71009399 428.12162918 419.58963684 428.12300385 418.43522644 428.12442017 C417.19517349 428.12082489 415.95512054 428.11722961 414.67749023 428.11352539 C412.73143387 428.11374443 412.73143387 428.11374443 410.74606323 428.1139679 C407.17804071 428.11425586 403.61005152 428.10835932 400.04203677 428.10139394 C396.3170938 428.09516021 392.59215014 428.09455659 388.86720276 428.09336853 C381.80882637 428.09025527 374.7504654 428.08204195 367.69209582 428.07201904 C359.65837029 428.06085774 351.62464404 428.05534741 343.5909127 428.05032361 C327.06059801 428.03985933 310.53030456 428.02151392 294 428 C294 413.81 294 399.62 294 385 C323.7 384.67 353.4 384.34 384 384 C384 271.8 384 159.6 384 44 C271.47 43.67 158.94 43.34 43 43 C43 71.38 43 99.76 43 129 C27.82 129 12.64 129 -3 129 C-3 128.34 -3 127.68 -3 127 C-2.01 126.505 -2.01 126.505 -1 126 C-0.67 84.42 -0.34 42.84 0 0 Z " fill="#AAAAAA" transform="translate(597,359)"/>
<path d="M0 0 C14.19 0 28.38 0 43 0 C43 58.74 43 117.48 43 178 C43.66 178 44.32 178 45 178 C45 179.98 45 181.96 45 184 C45.66 184 46.32 184 47 184 C47 185.32 47 186.64 47 188 C47.66 188 48.32 188 49 188 C49.37769531 188.65871094 49.75539063 189.31742188 50.14453125 189.99609375 C52.77181789 194.24953255 56.16763036 197.53616595 59.6875 201.0625 C60.37005859 201.76955078 61.05261719 202.47660156 61.75585938 203.20507812 C66.10990983 207.58379743 70.2233247 210.76344467 76 213 C77.27204788 213.5091243 77.27204788 213.5091243 78.5697937 214.02853394 C82.77956118 215.22077892 86.57516764 215.31487658 90.92700195 215.3347168 C91.80409317 215.34636871 92.68118439 215.35802063 93.58485413 215.37002563 C96.46931074 215.40586768 99.3536841 215.42783103 102.23828125 215.44921875 C104.24513997 215.47047733 106.2519913 215.49244481 108.25883484 215.51509094 C112.45580762 215.56041472 116.6527726 215.59923345 120.84985352 215.63305664 C126.24174298 215.67673963 131.63339632 215.73346628 137.02511311 215.7946043 C141.16416345 215.84066396 145.3032515 215.88150664 149.44237328 215.92057228 C151.4316042 215.93967273 153.4208234 215.96003724 155.41002846 215.98166466 C158.17999368 216.0106781 160.94993046 216.03306637 163.7199707 216.0534668 C164.54851562 216.06327072 165.37706055 216.07307465 166.23071289 216.08317566 C168.15397901 216.09381592 170.07742513 216.05264628 172 216 C172.33 215.67 172.66 215.34 173 215 C174.5293463 214.90160786 176.06319566 214.87201461 177.59570312 214.87060547 C179.06227356 214.86587723 179.06227356 214.86587723 180.55847168 214.86105347 C181.62198853 214.8630777 182.68550537 214.86510193 183.78125 214.8671875 C185.40697937 214.86575241 185.40697937 214.86575241 187.06555176 214.86428833 C189.3622239 214.86360635 191.65889795 214.86546189 193.95556641 214.86962891 C197.48474428 214.87497688 201.01379487 214.8696845 204.54296875 214.86328125 C206.76822945 214.86394203 208.99349007 214.86522318 211.21875 214.8671875 C212.28226685 214.86516327 213.34578369 214.86313904 214.44152832 214.86105347 C215.41924194 214.86420563 216.39695557 214.86735779 217.40429688 214.87060547 C218.26953979 214.87140106 219.13478271 214.87219666 220.02624512 214.87301636 C222 215 222 215 223 216 C224.96410611 216.09988258 226.93179434 216.13080835 228.8984375 216.1328125 C230.09984375 216.13410156 231.30125 216.13539063 232.5390625 216.13671875 C234.43785156 216.13091797 234.43785156 216.13091797 236.375 216.125 C238.2621875 216.13080078 238.2621875 216.13080078 240.1875 216.13671875 C241.39148438 216.13542969 242.59546875 216.13414062 243.8359375 216.1328125 C244.94501465 216.13168457 246.0540918 216.13055664 247.19677734 216.12939453 C250.08278534 216.12359796 250.08278534 216.12359796 253 215 C253 229.52 253 244.04 253 259 C252.34 259 251.68 259 251 259 C251 258.34 251 257.68 251 257 C250.34 257 249.68 257 249 257 C249 257.66 249 258.32 249 259 C237.15234827 259.02312202 225.30470186 259.04091437 213.4570322 259.05181217 C207.95629138 259.05704131 202.45556595 259.06413951 196.95483398 259.07543945 C191.6510344 259.08626725 186.34724965 259.0922766 181.04343987 259.09487724 C179.01514388 259.09673169 176.98684874 259.10035267 174.95855904 259.10573006 C172.12803486 259.11293906 169.29757282 259.113991 166.46704102 259.11352539 C165.61971909 259.11712067 164.77239716 259.12071594 163.8993988 259.12442017 C158.11405216 259.11405216 158.11405216 259.11405216 157 258 C154.41360962 257.90492179 151.8540144 257.87443624 149.26733398 257.88647461 C148.4576416 257.88632858 147.64794922 257.88618256 146.8137207 257.8860321 C144.12448492 257.88673146 141.43531751 257.8945249 138.74609375 257.90234375 C136.88664284 257.90420785 135.02719144 257.90563179 133.16773987 257.90663147 C128.26370904 257.91045729 123.35970764 257.92028812 118.45568848 257.93133545 C113.45548908 257.94154819 108.45528494 257.94612879 103.45507812 257.95117188 C93.63670579 257.96191033 83.81835534 257.97898752 74 258 C74 257.34 74 256.68 74 256 C71.36 256 68.72 256 66 256 C66 255.34 66 254.68 66 254 C64.02 254 62.04 254 60 254 C60 253.34 60 252.68 60 252 C58.68 252 57.36 252 56 252 C56 251.34 56 250.68 56 250 C54.68 250 53.36 250 52 250 C52 249.34 52 248.68 52 248 C50.68 248 49.36 248 48 248 C48 247.34 48 246.68 48 246 C46.68 246 45.36 246 44 246 C44 245.34 44 244.68 44 244 C43.34 244 42.68 244 42 244 C42 243.34 42 242.68 42 242 C40.68 242 39.36 242 38 242 C38 241.34 38 240.68 38 240 C37.34 240 36.68 240 36 240 C36 239.34 36 238.68 36 238 C35.34 238 34.68 238 34 238 C34 237.34 34 236.68 34 236 C33.34 236 32.68 236 32 236 C32 235.34 32 234.68 32 234 C31.34 234 30.68 234 30 234 C30 233.34 30 232.68 30 232 C29.34 232 28.68 232 28 232 C28 231.34 28 230.68 28 230 C27.34 230 26.68 230 26 230 C26 229.34 26 228.68 26 228 C25.34 228 24.68 228 24 228 C24 227.34 24 226.68 24 226 C23.34 226 22.68 226 22 226 C22 225.34 22 224.68 22 224 C21.39671875 223.73445312 20.7934375 223.46890625 20.171875 223.1953125 C10.94189448 218.11550307 4.82584758 201.69058949 2 192 C1.65596692 189.66822025 1.32050798 187.33512959 1 185 C0.67 184.67 0.34 184.34 0 184 C-0.09764835 181.621922 -0.12997133 179.27292872 -0.12025452 176.89439392 C-0.12110894 176.14216586 -0.12196337 175.3899378 -0.12284368 174.61491495 C-0.12450074 172.07520285 -0.11897345 169.5355557 -0.11352539 166.99584961 C-0.11324354 165.18291729 -0.11340121 163.36998486 -0.1139679 161.55705261 C-0.11425596 156.61924287 -0.10835781 151.68145719 -0.10139394 146.74365306 C-0.09516186 141.58932157 -0.09455672 136.43498958 -0.09336853 131.28065491 C-0.09025478 121.51295908 -0.08204081 111.74527438 -0.07201904 101.97758347 C-0.06085925 90.86048188 -0.05534779 79.74337978 -0.05032361 68.62627399 C-0.03985823 45.75084172 -0.02151221 22.87542473 0 0 Z " fill="#AAAAAA" transform="translate(485,640)"/>
<path d="M0 0 C14.19 0 28.38 0 43 0 C44.09469711 4.37878844 44.14011995 8.40992566 44.12939453 12.88354492 C44.13114685 13.77985123 44.13289917 14.67615753 44.13470459 15.59962463 C44.13910335 18.55992574 44.13619279 21.52016705 44.1328125 24.48046875 C44.13348593 26.53501904 44.13445628 28.58956925 44.13571167 30.64411926 C44.13718581 34.94724283 44.13504249 39.25034564 44.13037109 43.5534668 C44.12466322 49.08205656 44.12796129 54.6105979 44.13394356 60.13918591 C44.13754763 64.37950509 44.13641148 68.61981269 44.13381577 72.86013222 C44.13314663 74.89959023 44.13397447 76.93904928 44.13629532 78.97850609 C44.13882048 81.8205789 44.13498368 84.66257185 44.12939453 87.50463867 C44.13141876 88.35502716 44.13344299 89.20541565 44.13552856 90.08157349 C44.1142647 95.8857353 44.1142647 95.8857353 43 97 C43 99.31 43 101.62 43 104 C75.34 104 107.68 104 141 104 C141 118.19 141 132.38 141 147 C94.47 147 47.94 147 0 147 C0 98.49 0 49.98 0 0 Z " fill="#AAAAAA" transform="translate(597,640)"/>
</svg>
